<svg xmlns="http://www.w3.org/2000/svg" width="143.5" height="143.5" viewBox="0 0 143.5 143.5"><defs><style>.a{fill:none;}.b{fill:#707070;}</style></defs><path class="a" d="M0,0H143.5V143.5H0Z"/><path class="b" d="M86.708,66.771h-29.9v29.9h29.9ZM80.729,1V12.958H32.9V1H20.938V12.958H14.958A11.9,11.9,0,0,0,3.06,24.917L3,108.625a11.955,11.955,0,0,0,11.958,11.958H98.667a11.993,11.993,0,0,0,11.958-11.958V24.917A11.993,11.993,0,0,0,98.667,12.958H92.688V1ZM98.667,108.625H14.958V42.854H98.667Z" transform="translate(14.938 4.979)"/></svg>