<svg xmlns="http://www.w3.org/2000/svg" width="613.303" height="612.07" viewBox="0 0 613.303 612.07"><defs><style>.a{opacity:0.34;}.b{fill:#707070;}.c{fill:#eb3939;}</style></defs><g class="a"><path class="b" d="M375.148,361.085l42.931-74.209a10.835,10.835,0,0,0-2.453-13.8l-45.384-35.571a155.187,155.187,0,0,0,1.533-20.852,163.66,163.66,0,0,0-1.533-21.159l45.384-35.571a10.835,10.835,0,0,0,2.453-13.8L375.148,71.916a10.85,10.85,0,0,0-13.186-4.6L308.6,88.781A157.681,157.681,0,0,0,272.42,67.623l-7.973-56.73A11.158,11.158,0,0,0,253.715,2H167.853a11.13,11.13,0,0,0-10.733,9.2l-7.973,56.73a164.454,164.454,0,0,0-36.185,21.159L59.606,67.623a10.85,10.85,0,0,0-13.186,4.6L3.49,146.431a10.835,10.835,0,0,0,2.453,13.8L51.327,195.8a155.194,155.194,0,0,0-1.533,20.852,163.666,163.666,0,0,0,1.533,21.159L5.943,273.384a10.835,10.835,0,0,0-2.453,13.8l42.931,74.209a10.85,10.85,0,0,0,13.186,4.6l53.357-21.465a157.683,157.683,0,0,0,36.185,21.159l7.973,56.73a11.158,11.158,0,0,0,10.733,8.893h85.861a11.131,11.131,0,0,0,10.733-9.2l7.973-56.73A164.457,164.457,0,0,0,308.6,344.219l53.357,21.465A10.85,10.85,0,0,0,375.148,361.085Zm-164.363-83.1a61.33,61.33,0,1,1,61.33-61.33A61.51,61.51,0,0,1,210.784,277.983Z" transform="translate(-2.001 -2)"/><path class="c" d="M278.57,186.87l-29.438-22.692a95.918,95.918,0,0,0,1.227-13.493,64.982,64.982,0,0,0-1.227-13.493L278.264,114.5a7.009,7.009,0,0,0,1.533-8.893l-27.6-47.53c-1.533-3.066-5.213-3.986-8.586-3.066l-34.038,13.8a92.542,92.542,0,0,0-23.305-13.493l-5.213-36.185A6.618,6.618,0,0,0,174.617,13h-54.89a6.666,6.666,0,0,0-6.746,5.826l-5.213,36.185A109.947,109.947,0,0,0,84.462,68.5L50.424,54.7a7.052,7.052,0,0,0-8.586,3.066L14.24,105.3c-1.533,3.066-1.227,6.746,1.533,8.893L44.9,136.886a99.4,99.4,0,0,0,0,26.985L15.773,186.563a7.009,7.009,0,0,0-1.533,8.893l27.6,47.53c1.533,3.066,5.213,3.986,8.586,3.066l34.038-13.8a92.545,92.545,0,0,0,23.305,13.493l5.213,36.184a6.9,6.9,0,0,0,6.746,5.826h54.89a6.666,6.666,0,0,0,6.746-5.826l5.213-36.184c8.28-3.68,16.252-7.973,23-13.493l34.345,13.8a7.052,7.052,0,0,0,8.586-3.066l27.6-47.53C281.943,192.7,281.023,189.016,278.57,186.87Zm-131.552,4.906a41.4,41.4,0,1,1,41.4-41.4A41.42,41.42,0,0,1,147.018,191.776Z" transform="translate(332.228 324.313)"/></g></svg>