<svg xmlns="http://www.w3.org/2000/svg" width="157" height="157" viewBox="0 0 157 157"><defs><style>.a{fill:none;}.b{fill:#707070;}</style></defs><g transform="translate(0 -0.25)"><rect class="a" width="157" height="157" transform="translate(0 0.25)"/></g><g transform="translate(13.048 12.908)"><path class="b" d="M67.241,2a65.241,65.241,0,1,0,65.241,65.241A65.264,65.264,0,0,0,67.241,2Zm48.67,46.451-18.137,7.5A32.5,32.5,0,0,0,78.527,36.773l7.5-18.137A51.948,51.948,0,0,1,115.91,48.451ZM67.241,86.813A19.572,19.572,0,1,1,86.813,67.241,19.546,19.546,0,0,1,67.241,86.813ZM48.517,18.571,56.15,36.708A32.622,32.622,0,0,0,36.708,56.085L18.571,48.517A52.091,52.091,0,0,1,48.517,18.571ZM18.571,85.965l18.137-7.5A32.413,32.413,0,0,0,56.085,97.773L48.451,115.91A52.166,52.166,0,0,1,18.571,85.965ZM86.03,115.91l-7.5-18.137A32.478,32.478,0,0,0,97.773,78.4L115.91,86.03A52.241,52.241,0,0,1,86.03,115.91Z" transform="translate(-2 -2)"/></g></svg>