<svg xmlns="http://www.w3.org/2000/svg" width="141.911" height="141.911" viewBox="0 0 141.911 141.911"><defs><style>.a{fill:none;}.b{fill:#707070;}</style></defs><path class="a" d="M0,0H141.911V141.911H0Z"/><path class="b" d="M1,119.26H24.652V48.3H1ZM131.086,54.217A11.861,11.861,0,0,0,119.26,42.391H81.949l5.617-27.022.177-1.892a8.9,8.9,0,0,0-2.6-6.268L78.874,1,39.967,39.967A11.562,11.562,0,0,0,36.478,48.3v59.13A11.861,11.861,0,0,0,48.3,119.26h53.217a11.746,11.746,0,0,0,10.88-7.214l17.857-41.687a11.682,11.682,0,0,0,.828-4.316Z" transform="translate(4.913 4.913)"/></svg>